<?xml version="1.0" encoding="UTF-8" standalone="no"?>
<!-- Created with Inkscape (http://www.inkscape.org/) -->

<svg
   xmlns:dc="http://purl.org/dc/elements/1.1/"
   xmlns:cc="http://creativecommons.org/ns#"
   xmlns:rdf="http://www.w3.org/1999/02/22-rdf-syntax-ns#"
   xmlns:svg="http://www.w3.org/2000/svg"
   xmlns="http://www.w3.org/2000/svg"
   xmlns:sodipodi="http://sodipodi.sourceforge.net/DTD/sodipodi-0.dtd"
   xmlns:inkscape="http://www.inkscape.org/namespaces/inkscape"
   version="1.1"
   id="svg10"
   width="106.8593"
   height="142.554"
   viewBox="0 0 106.8593 142.554"
   sodipodi:docname="logo.svg"
   inkscape:version="0.92.3 (unknown)">
  <metadata
     id="metadata16">
    <rdf:RDF>
      <cc:Work
         rdf:about="">
        <dc:format>image/svg+xml</dc:format>
        <dc:type
           rdf:resource="http://purl.org/dc/dcmitype/StillImage" />
        <dc:title></dc:title>
      </cc:Work>
    </rdf:RDF>
  </metadata>
  <defs
     id="defs14" />
  <sodipodi:namedview
     pagecolor="#ffffff"
     bordercolor="#666666"
     borderopacity="1"
     objecttolerance="10"
     gridtolerance="10"
     guidetolerance="10"
     inkscape:pageopacity="0"
     inkscape:pageshadow="2"
     inkscape:window-width="1867"
     inkscape:window-height="1056"
     id="namedview12"
     showgrid="false"
     inkscape:snap-bbox="true"
     inkscape:snap-bbox-midpoints="true"
     inkscape:snap-object-midpoints="true"
     inkscape:snap-center="true"
     inkscape:snap-page="true"
     fit-margin-top="0"
     fit-margin-left="0"
     fit-margin-right="0"
     fit-margin-bottom="0"
     inkscape:zoom="2.285"
     inkscape:cx="-57.473077"
     inkscape:cy="67.741941"
     inkscape:window-x="53"
     inkscape:window-y="24"
     inkscape:window-maximized="1"
     inkscape:current-layer="svg10" />
  <path
     style="fill:#f7921e;fill-opacity:1"
     d="M 43.890772,138.99583 C 14.338152,121.74926 -1.0061085,85.108609 0.05119153,34.311068 l 0.31085,-14.934767 11.75000047,-4.737294 11.75,-4.737294 v 3.92206 c 0,4.633927 0.64107,4.776576 8.40749,1.870787 5.30532,-1.984975 5.49238,-2.18303 5.78751,-6.127856 l 0.305,-4.076583 7.5,-2.745061 7.5,-2.74506 7,2.663388 c 6.97803,2.655029 7.00095,2.676237 7.30187,6.757841 0.2953,4.00518 0.42836,4.140569 6.10268,6.209529 7.81462,2.849355 8.09545,2.781077 8.09545,-1.968257 0,-2.245834 0.38627,-3.933334 0.85837,-3.75 0.47211,0.183333 5.82239,2.355306 11.88952,4.826606 l 11.031148,4.493273 0.60179,5.006727 c 1.48981,12.394872 0.18798,34.749282 -2.9227,50.187226 -6.373548,31.631227 -21.710388,54.781857 -43.674888,65.926287 -6.31676,3.20503 -8.21828,3.04126 -15.75451,-1.35679 z m 16.70636,-6 c 19.37362,-11.91464 31.42768,-31.6558 37.3779,-61.214487 2.060288,-10.234867 3.702658,-45.664432 2.205988,-47.588175 -0.747418,-0.960692 -10.428778,-5.447334 -11.754358,-5.447334 -0.31054,0 -0.56462,1.848145 -0.56462,4.106989 0,3.516686 -0.25153,4.004389 -1.75,3.39316 -0.9625,-0.392606 -5.35,-1.974483 -9.75,-3.515283 -15.57984,-5.455775 -14.35918,-4.682171 -14.69637,-9.313995 -0.28521,-3.917871 -0.56036,-4.25962 -4.53599,-5.633958 -3.75095,-1.29667 -4.71778,-1.286767 -8.5,0.08706 -3.97009,1.442072 -4.30251,1.849602 -4.76764,5.844916 l -0.5,4.294761 -11,3.878959 c -6.05,2.133427 -11.69734,4.100815 -12.54965,4.371972 -1.23855,0.394041 -1.47029,-0.186657 -1.15438,-2.892673 0.21739,-1.862126 -0.0674,-3.671605 -0.6328,-4.021062 -0.56544,-0.349458 -3.53346,0.472629 -6.59562,1.826859 L 5.8620415,23.635776 V 40.20157 c 0,35.512493 8.2539005,62.32861 24.8186005,80.6332 5.42603,5.99596 19.26252,15.91106 22.20383,15.91106 0.88826,0 4.35896,-1.6875 7.71266,-3.75 z m -9.23509,-43.018921 c -3.31264,-0.66219 -4.5,-3.26854 -4.5,-9.8778 0,-5.033036 -0.49144,-6.988626 -2.5,-9.948416 -3.73498,-5.503795 -3.42449,-10.680375 0.9,-15.004859 3.88234,-3.882345 8.55875,-4.50693 13.72844,-1.833582 6.06255,3.135067 7.31642,12.788127 2.27616,17.523211 -2.10785,1.98021 -2.4046,3.14796 -2.4046,9.462236 0,4.58008 -0.4552,7.55546 -1.25,8.17045 -1.85943,1.43877 -4.00687,1.95716 -6.25,1.50876 z"
     id="path20"
     inkscape:connector-curvature="0" />
</svg>
